<?xml version="1.0" encoding="utf-8"?>
<!-- Generator: Adobe Illustrator 21.1.0, SVG Export Plug-In . SVG Version: 6.00 Build 0)  -->
<svg version="1.1"
	 id="Layer_1" inkscape:version="0.91 r13725" sodipodi:docname="abavo_search.svg" xmlns:cc="http://creativecommons.org/ns#" xmlns:dc="http://purl.org/dc/elements/1.1/" xmlns:inkscape="http://www.inkscape.org/namespaces/inkscape" xmlns:osb="http://www.openswatchbook.org/uri/2009/osb" xmlns:rdf="http://www.w3.org/1999/02/22-rdf-syntax-ns#" xmlns:sodipodi="http://sodipodi.sourceforge.net/DTD/sodipodi-0.dtd" xmlns:svg="http://www.w3.org/2000/svg"
	 xmlns="http://www.w3.org/2000/svg" xmlns:xlink="http://www.w3.org/1999/xlink" x="0px" y="0px" viewBox="0 0 500 500"
	 style="enable-background:new 0 0 500 500;" xml:space="preserve">
<style type="text/css">
	.st0{fill:#77BC00;stroke:#000000;stroke-miterlimit:10;}
	.st1{fill:#FFFFFF;}
</style>
<sodipodi:namedview  bordercolor="#666666" borderopacity="1" gridtolerance="10" guidetolerance="10" id="namedview3339" inkscape:current-layer="Layer_1" inkscape:cx="166.06591" inkscape:cy="223.98435" inkscape:pageopacity="0" inkscape:pageshadow="2" inkscape:window-height="1138" inkscape:window-maximized="1" inkscape:window-width="1920" inkscape:window-x="-8" inkscape:window-y="-8" inkscape:zoom="1.942" objecttolerance="10" pagecolor="#ffffff" showgrid="false">
	</sodipodi:namedview>
<rect x="-0.5" y="1.4" class="st0" width="500.5" height="498.6"/>
<path class="st1" d="M185.1,94.8c1.5,0,2.7,0.5,3.7,1.6c1,1,1.7,2.4,1.9,4.1v256.5c0,2.3-1,4-3.1,5l-83.7,44.7
	c-0.8,0.4-1.7,0.6-2.5,0.6c-1.5,0-2.8-0.5-4.1-1.6c-1.2-1-1.8-2.4-1.6-4.1V145.1c0-2.3,1-4,3.1-5l83.4-44.7
	C183.2,95,184.1,94.8,185.1,94.8L185.1,94.8z M402.6,94.8c1.5,0,2.8,0.5,4.1,1.6c1.2,1,1.8,2.4,1.6,4.1v256.5c0,2.3-0.9,4-2.8,5
	l-83.7,44.7c-0.8,0.4-1.8,0.6-2.8,0.6c-1.5,0-2.7-0.5-3.7-1.6s-1.7-2.4-1.9-4.1V145.1c0-2.3,1-4,3.1-5l83.7-44.7
	C400.9,95,401.7,94.8,402.6,94.8L402.6,94.8z M207.3,94.8c1,0,1.9,0.2,2.5,0.6l89.3,44.4c2.1,1.2,3.1,3,3.1,5.3v256.5
	c0,1.5-0.6,2.8-1.9,4.1c-1.2,1.2-2.5,1.8-3.7,1.6c-1,0-1.9-0.2-2.5-0.6l-89.3-44.4c-2.1-1.2-3.1-3-3.1-5.3V100.4
	c0-1.5,0.6-2.8,1.9-4.1C204.8,95.1,206.1,94.6,207.3,94.8z"/>
</svg>
