<svg version="1.1" xmlns="http://www.w3.org/2000/svg" width="1024" height="1024" viewBox="0 0 1024 1024">
<style type="text/css">
    .st0{fill:#76be07;}
</style>
<title></title>
<path class="st0" d="M292.864 0q7.168 0 12.288 5.12t6.144 13.312v840.704q0 11.264-10.24 16.384l-274.432 146.432q-4.096 2.048-8.192 2.048-7.168 0-13.312-5.12t-5.12-13.312v-840.704q0-11.264 10.24-16.384l273.408-146.432q4.096-2.048 9.216-2.048zM1005.568 0q7.168 0 13.312 5.12t5.12 13.312v840.704q0 11.264-9.216 16.384l-274.432 146.432q-4.096 2.048-9.216 2.048-7.168 0-12.288-5.12t-6.144-13.312v-840.704q0-11.264 10.24-16.384l274.432-146.432q4.096-2.048 8.192-2.048zM365.568 0q5.12 0 8.192 2.048l292.864 145.408q10.24 6.144 10.24 17.408v840.704q0 7.168-6.144 13.312t-12.288 5.12q-5.12 0-8.192-2.048l-292.864-145.408q-10.24-6.144-10.24-17.408v-840.704q0-7.168 6.144-13.312t12.288-5.12z"></path>
</svg>
