<?xml version="1.0" encoding="utf-8"?>
<!-- Generator: Adobe Illustrator 21.1.0, SVG Export Plug-In . SVG Version: 6.00 Build 0)  -->
<svg version="1.1"
	 id="Layer_1" inkscape:version="0.91 r13725" sodipodi:docname="abavo_search.svg" xmlns:cc="http://creativecommons.org/ns#" xmlns:dc="http://purl.org/dc/elements/1.1/" xmlns:inkscape="http://www.inkscape.org/namespaces/inkscape" xmlns:osb="http://www.openswatchbook.org/uri/2009/osb" xmlns:rdf="http://www.w3.org/1999/02/22-rdf-syntax-ns#" xmlns:sodipodi="http://sodipodi.sourceforge.net/DTD/sodipodi-0.dtd" xmlns:svg="http://www.w3.org/2000/svg"
	 xmlns="http://www.w3.org/2000/svg" xmlns:xlink="http://www.w3.org/1999/xlink" x="0px" y="0px" viewBox="0 0 500 500"
	 style="enable-background:new 0 0 500 500;" xml:space="preserve">
<style type="text/css">
	.st0{fill:#77BC00;stroke:#000000;stroke-miterlimit:10;}
	.st1{fill:#FFFFFF;}
</style>
<sodipodi:namedview  bordercolor="#666666" borderopacity="1" gridtolerance="10" guidetolerance="10" id="namedview3339" inkscape:current-layer="Layer_1" inkscape:cx="166.06591" inkscape:cy="223.98435" inkscape:pageopacity="0" inkscape:pageshadow="2" inkscape:window-height="1138" inkscape:window-maximized="1" inkscape:window-width="1920" inkscape:window-x="-8" inkscape:window-y="-8" inkscape:zoom="1.942" objecttolerance="10" pagecolor="#ffffff" showgrid="false">
	</sodipodi:namedview>
<rect x="-0.5" y="1.4" class="st0" width="500.5" height="498.6"/>
<path class="st1" d="M321.6,291.2l72.8,73.1l-30.1,30.1l-72.8-72.8c-20.3,13.8-42.4,20.6-66.5,20.6c-32.3,0-59.9-11.5-82.9-34.4
	c-22.9-22.9-34.4-50.6-34.4-82.9S119.1,165,142,142s50.6-34.4,82.9-34.4s59.9,11.5,82.9,34.4s34.4,50.6,34.4,82.9
	C342.2,249.2,335.3,271.3,321.6,291.2L321.6,291.2z M302.9,224.9c0-21.6-7.6-40.1-22.7-55.4c-15.1-15.3-33.6-22.9-55.4-22.9
	s-40.2,7.6-55.4,22.9c-15.1,15.3-22.8,33.7-22.9,55.4s7.5,40,22.9,55.1c15.5,15.1,33.9,22.8,55.4,22.9c21.4,0.2,39.9-7.5,55.4-22.9
	C295.7,264.5,303.3,246.1,302.9,224.9z"/>
</svg>
