<?xml version="1.0" encoding="utf-8"?>
<!-- Generator: Adobe Illustrator 16.0.3, SVG Export Plug-In . SVG Version: 6.00 Build 0)  -->
<!DOCTYPE svg PUBLIC "-//W3C//DTD SVG 1.1//EN" "http://www.w3.org/Graphics/SVG/1.1/DTD/svg11.dtd">
<svg version="1.1"
	 id="svg2" xmlns:dc="http://purl.org/dc/elements/1.1/" xmlns:rdf="http://www.w3.org/1999/02/22-rdf-syntax-ns#" xmlns:sodipodi="http://sodipodi.sourceforge.net/DTD/sodipodi-0.dtd" xmlns:svg="http://www.w3.org/2000/svg" xmlns:cc="http://creativecommons.org/ns#" xmlns:inkscape="http://www.inkscape.org/namespaces/inkscape"
	 xmlns="http://www.w3.org/2000/svg" xmlns:xlink="http://www.w3.org/1999/xlink" x="0px" y="0px" width="32px" height="32px"
	 viewBox="0 0 32 32" enable-background="new 0 0 32 32" xml:space="preserve">
<g id="background">
	<rect fill="none" width="32" height="32"/>
</g>
<g id="chat_x5F_settings">
	<path fill="#79BB00" d="M12,4v4H0v20h2.413l4.002-4h7.644c0.498,4.499,4.308,7.998,8.941,8c4.971-0.002,8.998-4.029,9-9V4H12z
		 M5.583,22L2,25.583V10h16v5.517c-2.15,1.438-3.642,3.78-3.941,6.483H5.583z M23,29.883c-3.801-0.009-6.875-3.084-6.884-6.883
		c0.008-3.801,3.083-6.876,6.884-6.885c3.799,0.009,6.875,3.084,6.883,6.885C29.875,26.799,26.799,29.874,23,29.883z M23,14
		c-1.055,0-2.061,0.19-3.002,0.523V8H14V6h16v11.35C28.352,15.308,25.83,14,23,14z"/>
	<path fill="#79BB00" d="M28,24v-2.001h-1.663c-0.063-0.212-0.146-0.413-0.245-0.606l1.188-1.187l-1.416-1.415l-1.165,1.166
		c-0.22-0.123-0.452-0.221-0.697-0.294V18h-2v1.662c-0.229,0.068-0.446,0.158-0.651,0.27l-1.142-1.14l-1.415,1.415l1.141,1.141
		C19.82,21.555,19.73,21.771,19.662,22H18v2h1.662c0.072,0.246,0.172,0.479,0.295,0.698l-1.165,1.163l1.413,1.416l1.188-1.188
		c0.192,0.102,0.395,0.182,0.605,0.245V28H24v-1.665c0.229-0.067,0.445-0.158,0.65-0.271l1.213,1.213l1.414-1.416l-1.213-1.211
		c0.111-0.205,0.201-0.422,0.271-0.65H28z M22.999,24.499c-0.829-0.002-1.498-0.671-1.501-1.5c0.003-0.829,0.672-1.498,1.501-1.501
		c0.829,0.003,1.498,0.672,1.5,1.501C24.497,23.828,23.828,24.497,22.999,24.499z"/>
</g>
</svg>
