<?xml version="1.0" encoding="utf-8"?>
<!-- Generator: Adobe Illustrator 16.0.3, SVG Export Plug-In . SVG Version: 6.00 Build 0)  -->
<!DOCTYPE svg PUBLIC "-//W3C//DTD SVG 1.1//EN" "http://www.w3.org/Graphics/SVG/1.1/DTD/svg11.dtd">
<svg version="1.1" id="logo" xmlns="http://www.w3.org/2000/svg" xmlns:xlink="http://www.w3.org/1999/xlink" x="0px" y="0px"
	 width="86.66px" height="71.191px" viewBox="0 0 86.66 71.191" enable-background="new 0 0 86.66 71.191" xml:space="preserve">
<path fill="#80C700" d="M64.034,24.45c-5.673,6.581-11.667,12.871-17.887,18.936c-3.47-8.294-7.256-16.45-11.258-24.501
	c6.769-5.996,13.373-12.172,19.734-18.599C58.09,8.209,61.266,16.255,64.034,24.45 M71.347,52.963
	c-4.808,6.347-9.969,12.407-15.397,18.228c-1.705-6.167-3.75-12.23-5.994-18.22C55.934,46.999,61.68,40.799,67.1,34.314
	C68.837,40.455,70.303,46.667,71.347,52.963"/>
<path fill="#80C700" d="M37.972,51.008C30.234,58,22.226,64.679,13.999,71.084C9.452,62.984,4.77,54.959,0,46.988
	c8.847-6.629,17.53-13.474,26.007-20.57C30.214,34.506,34.233,42.691,37.972,51.008 M86.66,28.705
	c-2.778,5.463-5.915,10.726-9.314,15.823c-0.926-6.161-2.251-12.25-3.843-18.273c3.772-5.021,7.321-10.205,10.526-15.604
	C85.245,16.615,86.155,22.635,86.66,28.705"/>
</svg>
