<?xml version="1.0" encoding="utf-8"?>
<!-- Generator: Adobe Illustrator 16.0.3, SVG Export Plug-In . SVG Version: 6.00 Build 0)  -->
<!DOCTYPE svg PUBLIC "-//W3C//DTD SVG 1.1//EN" "http://www.w3.org/Graphics/SVG/1.1/DTD/svg11.dtd">
<svg version="1.1" id="Ebene_1" xmlns:sketch="http://www.bohemiancoding.com/sketch/ns"
	 xmlns="http://www.w3.org/2000/svg" xmlns:xlink="http://www.w3.org/1999/xlink" x="0px" y="0px" width="18px" height="18px"
	 viewBox="0 0 18 18" enable-background="new 0 0 18 18" xml:space="preserve">
<title></title>
<desc></desc>
<g id="Page-1">
	<g id="Core" transform="translate(-87.000000, -171.000000)">
		<g id="drive-form" transform="translate(87.000000, 171.000000)">
			<path id="Shape" fill="#80C700" d="M16,0H2C0.9,0,0,0.9,0,2v14c0,1.1,0.9,2,2,2h14c1.1,0,2-0.9,2-2V2C18,0.9,17.1,0,16,0L16,0z
				 M6,14H4v-2h2V14L6,14z M6,10H4V8h2V10L6,10z M6,6H4V4h2V6L6,6z M14,14H7v-2h7V14L14,14z M14,10H7V8h7V10L14,10z M14,6H7V4h7V6
				L14,6z"/>
		</g>
	</g>
</g>
</svg>
