<?xml version="1.0" encoding="utf-8"?>
<!-- Generator: Adobe Illustrator 19.1.1, SVG Export Plug-In . SVG Version: 6.00 Build 0)  -->
<svg version="1.1" id="Ebene_1" xmlns="http://www.w3.org/2000/svg" xmlns:xlink="http://www.w3.org/1999/xlink" x="0px" y="0px"
	 width="64px" height="64px" viewBox="-447 249 64 64" style="enable-background:new -447 249 64 64;" xml:space="preserve">
<style type="text/css">
	.st0{fill:#77BC00;}
	.st1{fill:#FFFFFF;}
</style>
<path class="st0" d="M-447,249h64v64h-64V249z"/>
<g>
	<path class="st1" d="M-408.4,286.5c-0.3-0.1-0.6-0.1-0.8,0.1c-0.1,0.1-0.2,0.3-0.2,0.5c0,0.1,0,0.2,0.1,0.3l7,14.1
		c0.1,0.3,0.5,0.4,0.8,0.4s0.5-0.4,0.5-0.7v-6.3h6.3c0.3,0,0.6-0.2,0.7-0.5v-0.2c0-0.3-0.1-0.5-0.4-0.6
		C-394.4,293.6-408.4,286.5-408.4,286.5z"/>
	<path class="st1" d="M-424,287.4c0,0.3-0.3,0.6-0.6,0.6h-0.8c-0.3,0-0.6-0.3-0.6-0.6v-0.9c0-0.3,0.3-0.6,0.6-0.6h0.8
		c0.3,0,0.6,0.3,0.6,0.6V287.4z M-424.6,280h-0.8c-0.3,0-0.6-0.3-0.6-0.6v-0.9c0-0.3,0.3-0.6,0.6-0.6h0.8c0.3,0,0.6,0.3,0.6,0.6v0.9
		C-424,279.7-424.3,280-424.6,280z M-424,283.4c0,0.3-0.3,0.6-0.6,0.6h-0.9c-0.3,0-0.6-0.3-0.6-0.6v-0.9c0-0.3,0.3-0.6,0.6-0.6h0.9
		c0.3,0,0.6,0.3,0.6,0.6V283.4z M-401,286.8v-11.3c0-0.3-0.3-0.6-0.6-0.6h-26.8c-0.3,0-0.6,0.3-0.6,0.6v14.9c0,0.3,0.3,0.6,0.6,0.6
		h17.2l1,2H-429c-1.6,0-2-0.5-2-2v-20c0-1.6,0.4-2,2-2h28c1.6,0,2,0.3,2,1.9v16.9C-399,287.8-401,286.8-401,286.8z M-421.4,288
		c-0.3,0-0.6-0.3-0.6-0.6v-0.9c0-0.3,0.3-0.6,0.6-0.6h8.8c-0.1,0.3-0.1,0.6-0.1,1s0.1,0.7,0.2,1h-8.9V288z M-404.5,280h-16.9
		c-0.3,0-0.6-0.3-0.6-0.6v-0.9c0-0.3,0.3-0.6,0.6-0.6h16.9c0.3,0,0.6,0.3,0.6,0.6v0.9C-403.9,279.7-404.2,280-404.5,280z
		 M-409,283.2c-0.8,0-1.5,0.3-2.2,0.7h-10.2c-0.3,0-0.6-0.3-0.6-0.6v-0.9c0-0.3,0.3-0.6,0.6-0.6h16.9c0.3,0,0.6,0.3,0.6,0.6v0.9
		c0,0.3-0.3,0.6-0.6,0.6h-2.2l-0.6-0.3C-407.8,283.4-408.4,283.2-409,283.2z"/>
</g>
</svg>
